<svg width="167.56000976562498px" height="338.1999877929687px" xmlns="http://www.w3.org/2000/svg" viewBox="166.21999511718752 -94.09999389648436 167.56000976562498 338.1999877929687" style="background: rgb(5, 17, 3);" preserveAspectRatio="xMidYMid"><defs><linearGradient id="editing-glowing-gradient" x1="0.14644660940672632" x2="0.8535533905932737" y1="0.8535533905932738" y2="0.14644660940672616"><stop offset="0" stop-color="#acaeab"></stop><stop offset="1" stop-color="#1f245c"></stop></linearGradient><filter id="editing-glowing" x="-100%" y="-100%" width="300%" height="300%"><feGaussianBlur in="SourceGraphic" result="blur" stdDeviation="11.5"></feGaussianBlur><feMerge><feMergeNode in="blur"></feMergeNode><feMergeNode in="SourceGraphic"></feMergeNode></feMerge></filter></defs><g filter="url(#editing-glowing)"><g transform="translate(193.4000072479248, 145)"><path d="M8.40-11.80L8.40-11.80L8.40-11.80Q8.40-19.40 14.30-23.60L14.30-23.60L14.30-23.60Q20.20-27.80 28.60-27.80L28.60-27.80L28.60-27.80Q37-27.80 42.10-23.60L42.10-23.60L42.10-23.60Q47.20-19.40 47.20-11.80L47.20-11.80L47.20-11.80Q47.20-4.20 41.50-0.10L41.50-0.10L41.50-0.10Q35.80 4 27.40 4L27.40 4L27.40 4Q19 4 13.70-0.10L13.70-0.10L13.70-0.10Q8.40-4.20 8.40-11.80ZM48.80-95.80L48.80-95.80L48.80-95.80Q44.40-94.60 35.60-94.60L35.60-94.60L35.60-94.60Q26.80-94.60 20.40-98.20L20.40-98.20L20.40-98.20Q14-101.80 14-108.10L14-108.10L14-108.10Q14-114.40 17.10-119.40L17.10-119.40L17.10-119.40Q20.20-124.40 26.80-128L26.80-128L26.80-128Q40.60-136 64.40-136L64.40-136L64.40-136Q88.20-136 97.60-129.40L97.60-129.40L97.60-129.40Q107-122.80 107-111.60L107-111.60L107-111.60Q107-94.60 90-81.40L90-81.40L90-81.40Q85-77.40 78.80-73.40L78.80-73.40L40.60-48.60L40.60-48.60Q32.80-43.40 32.80-35.80L32.80-35.80L32.80-35.80Q27-35.80 23.20-40.80L23.20-40.80L23.20-40.80Q19.40-45.80 19.40-52.80L19.40-52.80L19.40-52.80Q19.40-68.80 34.60-78.20L34.60-78.20L57.20-92.20L57.20-92.20Q66.60-97.80 71.60-107.60L71.60-107.60L71.60-107.60Q73.20-110.80 73.20-114.80L73.20-114.80L73.20-114.80Q73.20-124 64-124L64-124L64-124Q56.80-124 51.80-118.20L51.80-118.20L51.80-118.20Q47.40-113 47.20-106.20L47.20-106.20L47.20-106.20Q47-99.40 48.80-95.80Z" fill="url(#editing-glowing-gradient)"></path></g></g><style>text {
  font-size: 64px;
  font-family: Arial Black;
  dominant-baseline: central;
  text-anchor: middle;
}</style></svg>